<svg width="95" height="24" viewBox="0 0 95 24" fill="none" xmlns="http://www.w3.org/2000/svg">
<g clip-path="url(#clip0_1_415)">
<rect width="512" height="512" fill="white"/>
<mask id="mask0_1_415" style="mask-type:alpha" maskUnits="userSpaceOnUse" x="0" y="0" width="24" height="24">
<circle cx="12" cy="12" r="12" fill="#D9D9D9"/>
</mask>
<g mask="url(#mask0_1_415)">
<path fill-rule="evenodd" clip-rule="evenodd" d="M0.294722 0H24V23.6591C24 23.8475 23.8679 24 23.7052 24H0.294722C0.131952 24 0 23.8475 0 23.6591V0.341143C0 0.152735 0.131952 0 0.294722 0Z" fill="#42ADE2"/>
<path fill-rule="evenodd" clip-rule="evenodd" d="M0 18.094C0 18.094 5.1494 16.7609 10.7279 18.2642C16.4027 19.7935 22.0687 21.9865 24 20.7744C24 23.1982 24 24 24 24H0V18.094Z" fill="#6EB925"/>
<path fill-rule="evenodd" clip-rule="evenodd" d="M24 4.54369C24 6.93204 23.0971 6.99029 14.8544 5.09709C10.1359 4.01334 4.71845 4.04854 0 8.91262C2.01105e-05 5.3301 0 2.30826 0 0C2.01248 0 3.05522 0 5.04709 0C7.13049 0 23.9164 0 24 0C24 0.0863515 24 1.2233 24 4.54369Z" fill="#FECD57"/>
<path fill-rule="evenodd" clip-rule="evenodd" d="M12.8767 10.3543L10.3812 10.3452H7.50579C6.5417 9.99272 5.71673 9.22592 5.43242 8.13445C5.3481 7.81077 5.23477 7.37172 5.34982 7.05627C5.41993 6.86399 5.63459 6.77637 5.8124 6.77539C6.88624 6.76944 7.96011 6.76845 9.03396 6.76632C11.0082 6.76241 10.9886 6.75726 12.9629 6.75726C14.0473 6.75726 14.949 6.80811 15.9136 7.33713C16.6526 7.74245 17.2193 8.28929 17.7144 8.96803C18.1365 9.54688 18.3837 10.2464 18.5486 10.9704C19.0734 13.2726 17.8285 15.4382 16.0953 16.5788C15.6479 16.8733 15.0843 17.0391 14.5754 17.1406C12.4298 17.5685 10.8773 16.6473 10.2122 14.4587L11.5444 14.4541L12.8767 14.4496C13.1182 14.4487 13.1182 13.9785 12.8767 13.9785C12.8767 13.9785 11.3219 13.9815 10.193 13.9785C9.9651 13.9779 9.61811 13.7444 9.4342 13.6234C8.66406 13.1165 8.10996 12.3495 7.85564 11.3731C7.81443 11.215 7.74795 10.9843 7.74795 10.8254L12.8767 10.8345C13.1182 10.835 13.1182 10.3547 12.8767 10.3543Z" fill="white"/>
</g>
</g>
<g clip-path="url(#clip1_1_415)">
<path d="M29.7062 17.5155C29.7062 19.7012 30.8511 20.823 33.1062 20.823H33.2218C34.6443 20.823 35.6157 20.3141 35.6157 19.3196C35.6157 18.5332 35.1647 18.1862 34.332 18.0937L34.1123 18.0706C33.3837 18.0128 33.0831 17.6427 33.0831 16.7638V10.8312H34.2742C35.0722 10.8312 35.5694 10.3339 35.5694 9.55909C35.5694 8.78427 35.0722 8.28699 34.2742 8.28699H33.0831V6.91082C33.0831 5.82374 32.447 5.153 31.3946 5.153C30.3423 5.153 29.7062 5.82374 29.7062 6.91082V8.28699H29.0586C28.2606 8.28699 27.7518 8.77271 27.7518 9.55909C27.7518 10.3455 28.2606 10.8312 29.0586 10.8312H29.7062V17.5155ZM40.7735 20.8808C42.3231 20.8808 43.8728 20.106 44.5667 18.7876H44.636V19.4237C44.7055 20.4182 45.3415 20.927 46.2551 20.927C47.2149 20.927 47.8973 20.3488 47.8973 19.227V12.1611C47.8973 9.66317 45.8272 8.02101 42.6469 8.02101C40.0796 8.02101 38.0905 8.93462 37.5123 10.4149C37.3966 10.6693 37.3388 10.9122 37.3388 11.1781C37.3388 11.9414 37.9286 12.4734 38.7497 12.4734C39.2932 12.4734 39.7211 12.2652 40.0912 11.8489C40.8429 10.8774 41.4674 10.5421 42.4966 10.5421C43.7687 10.5421 44.5782 11.2128 44.5782 12.3693V13.1904L41.4558 13.3754C38.3565 13.5604 36.6218 14.8672 36.6218 17.1223C36.6218 19.3543 38.4143 20.8808 40.7735 20.8808ZM41.8837 18.4407C40.7503 18.4407 39.9871 17.8625 39.9871 16.9373C39.9871 16.0584 40.7041 15.4917 41.9647 15.3992L44.5782 15.2373V16.1393C44.5782 17.4808 43.3639 18.4407 41.8837 18.4407ZM51.8523 20.927C52.8469 20.927 53.5408 20.3257 53.5408 19.1692V16.6597L54.6163 15.6652L57.7965 19.8747C58.3285 20.6726 58.7332 20.927 59.4501 20.927C60.3985 20.927 61.0578 20.3026 61.0578 19.4005C61.0578 18.9611 60.9536 18.6604 60.5835 18.1631L57.1258 13.757L60.2829 10.7734C60.7686 10.3224 60.9189 10.0101 60.9189 9.50127C60.9189 8.66863 60.2829 8.03256 59.4154 8.03256C58.9067 8.03256 58.5251 8.22917 58.0741 8.7033L53.587 13.2019H53.5408V5.5115C53.5408 4.35504 52.8469 3.74212 51.8523 3.74212C50.8693 3.74212 50.1639 4.35504 50.1639 5.5115V19.1692C50.1639 20.3257 50.8693 20.927 51.8523 20.927ZM64.5966 20.927C65.591 20.927 66.2848 20.3257 66.2848 19.1692V5.5115C66.2848 4.35504 65.591 3.74212 64.5966 3.74212C63.6135 3.74212 62.908 4.35504 62.908 5.5115V19.1692C62.908 20.3257 63.6135 20.927 64.5966 20.927ZM70.3095 6.74891C71.327 6.74891 72.1133 5.97408 72.1133 5.00266C72.1133 4.01967 71.327 3.25641 70.3095 3.25641C69.2917 3.25641 68.5054 4.01967 68.5054 5.00266C68.5054 5.97408 69.2917 6.74891 70.3095 6.74891ZM70.3095 20.927C71.35 20.927 71.9977 20.2679 71.9977 19.1692V9.80196C71.9977 8.7033 71.35 8.03256 70.3095 8.03256C69.257 8.03256 68.621 8.7033 68.621 9.80196V19.1692C68.621 20.2679 69.257 20.927 70.3095 20.927ZM79.9543 20.9502C82.348 20.9502 84.2677 20.0481 85.0888 18.5216C85.2391 18.2441 85.3202 17.9665 85.3202 17.7006C85.3202 16.9257 84.7303 16.4631 84.0018 16.4631C83.5622 16.4631 83.2616 16.5903 82.9032 16.9604C81.9896 18.0359 81.1799 18.4522 79.9427 18.4522C78.2311 18.4522 77.1208 17.2495 77.1208 15.4108V15.2604H84.1982C85.1352 15.2604 85.667 14.7284 85.667 13.7917C85.667 10.4264 83.308 8.02101 79.7923 8.02101C76.1263 8.02101 73.8018 10.5536 73.8018 14.5434C73.8018 18.5563 76.0799 20.9502 79.9543 20.9502ZM77.1555 13.1904C77.2711 11.606 78.3467 10.519 79.8271 10.519C81.3072 10.519 82.348 11.5713 82.4175 13.1904H77.1555ZM90.0037 20.927C90.9985 20.927 91.6922 20.3373 91.6922 19.1692V10.8312H93.0337C93.7392 10.8312 94.271 10.3802 94.271 9.58224C94.271 8.79583 93.7392 8.34482 93.0337 8.34482H91.6114V7.55844C91.6114 6.64483 92.0276 6.22849 93.0685 6.19382C93.323 6.18223 93.5311 6.14755 93.7161 6.10129C94.1671 5.96252 94.3982 5.68496 94.3982 5.21082C94.3982 4.41286 93.6467 3.8462 91.8542 3.8462C89.518 3.86933 88.3155 4.9564 88.3155 7.40809V8.34482H87.6678C86.9623 8.34482 86.4302 8.79583 86.4302 9.58224C86.4302 10.3802 86.9623 10.8312 87.6678 10.8312H88.3155V19.1692C88.3155 20.3373 88.9976 20.927 90.0037 20.927Z" fill="black"/>
</g>
<defs>
<clipPath id="clip0_1_415">
<rect width="24" height="24" rx="12" fill="white"/>
</clipPath>
<clipPath id="clip1_1_415">
<rect width="66.9474" height="18" fill="white" transform="translate(27.5996 3)"/>
</clipPath>
</defs>
</svg>
